<?xml version="1.0" encoding="utf-8"?>
<!-- Generator: Adobe Illustrator 19.0.0, SVG Export Plug-In . SVG Version: 6.00 Build 0)  -->
<svg version="1.1" id="Layer_1" xmlns="http://www.w3.org/2000/svg" xmlns:xlink="http://www.w3.org/1999/xlink" x="0px" y="0px"
	 viewBox="202 -80.1 1000 1000" style="enable-background:new 202 -80.1 1000 1000;" xml:space="preserve">
<style type="text/css">
	.st0{fill:#FFFFFF;}
</style>
<path class="st0" d="M993,3.9c0,8.7-3.3,16.3-10,23l-393,393l393,393c6.7,6.7,10,14.3,10,23s-3.3,16.3-10,23l-50,50
	c-6.7,6.7-14.3,10-23,10s-16.3-3.3-23-10l-466-466c-6.7-6.7-10-14.3-10-23s3.3-16.3,10-23l466-466c6.7-6.7,14.3-10,23-10
	s16.3,3.3,23,10l50,50C989.7-12.4,993-4.8,993,3.9z"/>
</svg>
