<svg id="Layer_1" data-name="Layer 1" xmlns="http://www.w3.org/2000/svg" viewBox="0 0 1000 1000"><defs><style>.cls-1{fill:#fff;}</style></defs><title>Artboard 1</title><path class="cls-1" d="M202.24,500c0-212.61,168-386,378.53-394.54a417.3,417.3,0,0,0-137.93-23.3C212.08,82.16,25,269.23,25,500S212.08,917.84,442.84,917.84a417.3,417.3,0,0,0,137.93-23.3C370.27,886,202.24,712.61,202.24,500Z"/><path id="star" class="cls-1" d="M494.56,510.08,437.8,466.54,381.05,510.1l21.85-70.21L346,396.6l70.27.15,21.55-70.31,21.58,70.3,70.27-.17-56.93,43.3Z"/><path class="cls-1" d="M939.94,510.08l-56.76-43.54L826.43,510.1l21.85-70.21L791.34,396.6l70.26.15,21.56-70.31,21.58,70.3,70.26-.17-56.93,43.3Z"/><path class="cls-1" d="M717.48,344.79l-56.77-43.55L604,344.81l21.84-70.22-56.94-43.28,70.27.15,21.55-70.32,21.58,70.31,70.27-.17-56.93,43.3Z"/><path class="cls-1" d="M577.9,774.56,521.13,731l-56.75,43.56,21.85-70.21-56.94-43.29,70.26.15,21.56-70.31,21.58,70.3,70.26-.17L556,704.35Z"/><path class="cls-1" d="M856.6,774.56,799.84,731l-56.75,43.56,21.85-70.21L708,661.08l70.26.15,21.56-70.31,21.58,70.3,70.26-.17-56.93,43.3Z"/></svg>
